<svg width="78" height="78" viewBox="0 0 78 78" fill="none" xmlns="http://www.w3.org/2000/svg">
<rect width="78" height="78" fill="white"/>
<path fill-rule="evenodd" clip-rule="evenodd" d="M20.3265 26.7188C19.6953 27.9577 19.6953 29.5794 19.6953 32.823V45.178C19.6953 48.4216 19.6953 50.0433 20.3265 51.2822C20.8818 52.3719 21.7678 53.2579 22.8575 53.8131C24.0964 54.4444 25.7181 54.4444 28.9616 54.4444H49.0386C52.2822 54.4444 53.9039 54.4444 55.1428 53.8131C56.2325 53.2579 57.1185 52.3719 57.6737 51.2822C58.305 50.0433 58.305 48.4216 58.305 45.178V32.823C58.305 29.5794 58.305 27.9577 57.6737 26.7188C57.1185 25.6291 56.2325 24.7431 55.1428 24.1879C53.9039 23.5566 52.2822 23.5566 49.0386 23.5566H28.9616C25.7181 23.5566 24.0964 23.5566 22.8575 24.1879C21.7678 24.7431 20.8818 25.6291 20.3265 26.7188ZM30.4398 31.6171C29.5606 31.014 28.3589 31.2378 27.7558 32.117C27.1527 32.9962 27.3765 34.1978 28.2557 34.801L35.724 39.9242C37.6981 41.2785 40.3021 41.2785 42.2763 39.9242L49.7446 34.801C50.6238 34.1978 50.8476 32.9962 50.2445 32.117C49.6413 31.2378 48.4397 31.014 47.5605 31.6171L40.0922 36.7404C39.4341 37.1918 38.5661 37.1918 37.9081 36.7404L30.4398 31.6171Z" fill="#1649FF"/>
</svg>
