<svg width="120" height="120" viewBox="0 0 120 120" fill="none" xmlns="http://www.w3.org/2000/svg">
<circle cx="60" cy="60" r="60" fill="#1649FF"/>
<path d="M85.6419 58.9878C85.6419 57.5561 85.0732 56.183 84.0608 55.1706C83.0484 54.1583 81.6753 53.5895 80.2436 53.5895H79.5688C79.2109 53.5895 78.8676 53.4473 78.6145 53.1942C78.3614 52.9411 78.2192 52.5979 78.2192 52.2399V45.492C78.2192 40.66 76.2997 36.0258 72.8829 32.609C69.4661 29.1922 64.832 27.2727 59.9999 27.2727C55.1679 27.2727 50.5337 29.1922 47.1169 32.609C43.7001 36.0258 41.7806 40.66 41.7806 45.492V52.2399C41.7806 52.5979 41.6384 52.9411 41.3853 53.1942C41.1322 53.4473 40.7889 53.5895 40.431 53.5895H39.7562C38.3245 53.5895 36.9514 54.1583 35.939 55.1706C34.9267 56.183 34.3579 57.5561 34.3579 58.9878V87.329C34.3579 88.7607 34.9267 90.1338 35.939 91.1462C36.9514 92.1585 38.3245 92.7273 39.7562 92.7273H80.2436C81.6753 92.7273 83.0484 92.1585 84.0608 91.1462C85.0732 90.1338 85.6419 88.7607 85.6419 87.329V58.9878ZM48.5285 45.492C48.5285 42.4496 49.7371 39.5318 51.8884 37.3805C54.0397 35.2292 56.9575 34.0206 59.9999 34.0206C63.0423 34.0206 65.9601 35.2292 68.1114 37.3805C70.2627 39.5318 71.4713 42.4496 71.4713 45.492V52.2399C71.4713 52.5979 71.3292 52.9411 71.0761 53.1942C70.823 53.4473 70.4797 53.5895 70.1218 53.5895H49.8781C49.5201 53.5895 49.1769 53.4473 48.9238 53.1942C48.6707 52.9411 48.5285 52.5979 48.5285 52.2399V45.492ZM59.9999 84.6298C59.247 84.6304 58.5108 84.4075 57.8845 83.9896C57.2582 83.5716 56.77 82.9772 56.4816 82.2817C56.1932 81.5861 56.1176 80.8207 56.2644 80.0822C56.4112 79.3437 56.7737 78.6653 57.3061 78.1329C57.8385 77.6005 58.5169 77.238 59.2554 77.0912C59.9939 76.9444 60.7594 77.02 61.4549 77.3084C62.1504 77.5968 62.7448 78.085 63.1628 78.7113C63.5807 79.3376 63.8036 80.0738 63.803 80.8267C63.8034 81.3262 63.7053 81.8209 63.5143 82.2825C63.3233 82.7441 63.0431 83.1635 62.6899 83.5167C62.3367 83.8699 61.9173 84.1501 61.4557 84.3411C60.9941 84.5321 60.4994 84.6302 59.9999 84.6298V84.6298ZM67.8734 74.6429C67.5364 75.0604 67.0474 75.327 66.514 75.3842C65.9806 75.4413 65.4463 75.2844 65.0284 74.9479C63.6093 73.7893 61.8334 73.1564 60.0013 73.1564C58.1691 73.1564 56.3933 73.7893 54.9741 74.9479C54.5549 75.2837 54.0196 75.4392 53.4858 75.3802C52.952 75.3212 52.4636 75.0526 52.1278 74.6335C51.7921 74.2143 51.6366 73.679 51.6956 73.1452C51.7545 72.6115 52.0231 72.123 52.4423 71.7872C54.5796 70.0432 57.2535 69.0907 60.0121 69.0907C62.7706 69.0907 65.4445 70.0432 67.5819 71.7872C67.9981 72.1262 68.2626 72.6167 68.3173 73.1507C68.3719 73.6847 68.2122 74.2185 67.8734 74.6348V74.6429ZM72.3702 68.138C72.0332 68.5554 71.5442 68.822 71.0108 68.8792C70.4774 68.9364 69.9431 68.7795 69.5252 68.443C66.8369 66.2461 63.4718 65.046 59.9999 65.046C56.5281 65.046 53.163 66.2461 50.4746 68.443C50.0565 68.7801 49.5216 68.9374 48.9876 68.8802C48.4536 68.823 47.9641 68.556 47.627 68.138C47.2898 67.7199 47.1325 67.185 47.1897 66.651C47.2469 66.117 47.5139 65.6275 47.932 65.2904C51.3385 62.5081 55.6016 60.9884 59.9999 60.9884C64.3982 60.9884 68.6614 62.5081 72.0679 65.2904C72.4833 65.6276 72.7483 66.1156 72.805 66.6477C72.8616 67.1798 72.7053 67.7127 72.3702 68.1299V68.138Z" fill="white"/>
<rect x="42.5317" y="58.4536" width="34.937" height="27.4073" fill="white"/>
</svg>
