<svg width="93" height="92" viewBox="0 0 93 92" fill="none" xmlns="http://www.w3.org/2000/svg">
<g clip-path="url(#clip0_401_424)">
<path d="M46.1443 92C71.5494 92 92.1443 71.4051 92.1443 46C92.1443 20.5949 71.5494 0 46.1443 0C20.7392 0 0.144287 20.5949 0.144287 46C0.144287 71.4051 20.7392 92 46.1443 92Z" fill="white"/>
<path d="M29.8976 67V58.4773L46.176 45.0114C47.2556 44.1165 48.1789 43.2784 48.9459 42.4972C49.7272 41.7017 50.3238 40.8849 50.7357 40.0469C51.1618 39.2088 51.3749 38.2784 51.3749 37.2557C51.3749 36.1335 51.1334 35.1747 50.6505 34.3793C50.1817 33.5838 49.5283 32.973 48.6902 32.5469C47.8522 32.1065 46.8863 31.8864 45.7925 31.8864C44.6988 31.8864 43.7329 32.1065 42.8948 32.5469C42.0709 32.9872 41.4317 33.6335 40.9772 34.4858C40.5226 35.3381 40.2954 36.375 40.2954 37.5966H29.0454C29.0454 34.5284 29.7343 31.8864 31.1121 29.6705C32.49 27.4545 34.436 25.75 36.9502 24.5568C39.4644 23.3636 42.4118 22.767 45.7925 22.767C49.2868 22.767 52.3124 23.3281 54.8692 24.4503C57.4402 25.5582 59.4218 27.1207 60.8138 29.1378C62.2201 31.1548 62.9232 33.5199 62.9232 36.233C62.9232 37.9091 62.5752 39.5781 61.8792 41.2401C61.1831 42.8878 59.9331 44.7131 58.1292 46.7159C56.3252 48.7188 53.7613 51.1051 50.4374 53.875L46.3465 57.2841V57.5398H63.3919V67H29.8976Z" fill="#C63214"/>
</g>
<defs>
<clipPath id="clip0_401_424">
<rect width="93" height="92" fill="white"/>
</clipPath>
</defs>
</svg>
