<svg width="93" height="92" viewBox="0 0 93 92" fill="none" xmlns="http://www.w3.org/2000/svg">
<g clip-path="url(#clip0_401_427)">
<path d="M46.1443 92C71.5494 92 92.1443 71.4051 92.1443 46C92.1443 20.5949 71.5494 0 46.1443 0C20.7392 0 0.144287 20.5949 0.144287 46C0.144287 71.4051 20.7392 92 46.1443 92Z" fill="white"/>
<path d="M45.9431 67.5966C42.5056 67.5966 39.4516 67.0071 36.7811 65.8281C34.1249 64.6349 32.0368 62.9943 30.5169 60.9062C28.9971 58.8182 28.23 56.4176 28.2158 53.7045H40.1476C40.1618 54.5426 40.4175 55.2955 40.9147 55.9631C41.426 56.6165 42.1221 57.1278 43.0027 57.4972C43.8834 57.8665 44.8919 58.0511 46.0283 58.0511C47.1221 58.0511 48.088 57.8594 48.926 57.4759C49.7641 57.0781 50.4175 56.5312 50.8863 55.8352C51.355 55.1392 51.5823 54.3437 51.5681 53.4489C51.5823 52.5682 51.3124 51.7869 50.7584 51.1051C50.2187 50.4233 49.4587 49.8906 48.4786 49.5071C47.4985 49.1236 46.3692 48.9318 45.0908 48.9318H40.659V40.75H45.0908C46.2698 40.75 47.3067 40.5582 48.2016 40.1747C49.1107 39.7912 49.8138 39.2585 50.311 38.5767C50.8223 37.8949 51.0709 37.1136 51.0567 36.233C51.0709 35.3807 50.865 34.6278 50.4388 33.9744C50.0127 33.321 49.4161 32.8097 48.649 32.4403C47.8962 32.071 47.0226 31.8864 46.0283 31.8864C44.9488 31.8864 43.9829 32.0781 43.1306 32.4616C42.2925 32.8452 41.632 33.3778 41.149 34.0597C40.6661 34.7415 40.4175 35.5227 40.4033 36.4034H29.0681C29.0823 33.733 29.8138 31.375 31.2627 29.3295C32.7258 27.2841 34.7286 25.679 37.2712 24.5142C39.8138 23.3494 42.7329 22.767 46.0283 22.767C49.2527 22.767 52.1008 23.3139 54.5723 24.4077C57.0581 25.5014 58.9971 27.0071 60.3891 28.9247C61.7954 30.8281 62.4914 33.0085 62.4772 35.4659C62.5056 37.9091 61.6675 39.9119 59.963 41.4744C58.2726 43.0369 56.1277 43.9602 53.5283 44.2443V44.5852C57.051 44.9687 59.7002 46.0483 61.4758 47.8239C63.2513 49.5852 64.1249 51.8011 64.0965 54.4716C64.1107 57.0284 63.3437 59.294 61.7954 61.2685C60.2613 63.2429 58.1235 64.7912 55.382 65.9134C52.6547 67.0355 49.5084 67.5966 45.9431 67.5966Z" fill="#C63214"/>
</g>
<defs>
<clipPath id="clip0_401_427">
<rect width="93" height="92" fill="white"/>
</clipPath>
</defs>
</svg>
